Coordinates
version=1
nRows=11
nColumns=63
inDegrees=yes

Units are S.I. units (second, meters, Newtons, ...)
If the header above contains a line with 'inDegrees', this indicates whether rotational values are in degrees (yes) or radians (no).

endheader
time	pelvis_tilt	pelvis_list	pelvis_rotation	pelvis_tx	pelvis_ty	pelvis_tz	hip_flexion_r	hip_adduction_r	hip_rotation_r	knee_angle_r	knee_angle_r_beta	ankle_angle_r	subtalar_angle_r	mtp_angle_r	hip_flexion_l	hip_adduction_l	hip_rotation_l	knee_angle_l	knee_angle_l_beta	ankle_angle_l	subtalar_angle_l	mtp_angle_l	L5_S1_Flex_Ext	L5_S1_Lat_Bending	L5_S1_axial_rotation	L4_L5_Flex_Ext	L4_L5_Lat_Bending	L4_L5_axial_rotation	L3_L4_Flex_Ext	L3_L4_Lat_Bending	L3_L4_axial_rotation	L2_L3_Flex_Ext	L2_L3_Lat_Bending	L2_L3_axial_rotation	L1_L2_Flex_Ext	L1_L2_Lat_Bending	L1_L2_axial_rotation	L1_T12_Flex_Ext	L1_T12_Lat_Bending	L1_T12_axial_rotation	Abs_r3	Abs_r2	Abs_r1	Abs_t1	Abs_t2	neck_flexion	neck_bending	neck_rotation	arm_flex_r	arm_add_r	arm_rot_r	elbow_flex_r	pro_sup_r	wrist_flex_r	wrist_dev_r	arm_flex_l	arm_add_l	arm_rot_l	elbow_flex_l	pro_sup_l	wrist_flex_l	wrist_dev_l
2.400000	3.643913	-1.849961	84.372100	0.174807	0.975415	0.442132	3.332128	5.293365	1.061628	22.093142	0.385598	35.352712	-14.056704	0.000000	5.358437	-6.873763	-6.459724	26.675852	0.465581	39.346632	-0.440030	0.000000	0.007838	0.894408	-0.139963	0.014555	1.189562	-0.148711	0.012877	2.174663	-0.148711	0.008958	2.174663	-0.122468	0.007278	1.823876	-0.113720	0.004478	1.385438	-0.104973	0.055984	10.117720	-0.778435	0.000000	0.000000	4.316822	-10.269971	3.734749	24.535753	-42.988615	-28.912488	139.397160	88.318291	-22.136536	-1.652514	-6.588135	-24.419774	-53.072145	149.759989	85.513560	-21.872247	-11.940502
2.416667	3.673737	-1.912605	84.315231	0.175505	0.975083	0.441880	3.458876	5.366967	1.229219	22.220423	0.387820	35.542790	-14.016686	0.000000	5.423852	-6.974988	-6.594549	26.757025	0.466998	39.351418	-0.292665	0.000000	0.016946	0.899825	-0.158877	0.031471	1.196767	-0.168807	0.027841	2.187833	-0.168807	0.019368	2.187833	-0.139017	0.015737	1.834922	-0.129087	0.009683	1.393828	-0.119158	0.121047	10.178995	-0.883625	0.000000	0.000000	4.111385	-10.397872	4.062219	24.981202	-42.292956	-28.078660	139.494240	88.965440	-22.103146	-1.003286	-7.220626	-24.450314	-53.784334	149.775960	85.825109	-22.056814	-12.164301
2.433333	3.696538	-2.002564	84.295314	0.176135	0.974739	0.441612	3.618342	5.438949	1.388955	22.363477	0.390316	35.731275	-14.007699	0.000000	5.541414	-7.058275	-6.655333	26.847005	0.468569	39.412045	-0.142623	0.000000	0.030040	0.902454	-0.140198	0.055788	1.200264	-0.148961	0.049353	2.194227	-0.148961	0.034333	2.194227	-0.122674	0.027895	1.840284	-0.113911	0.017165	1.397901	-0.105149	0.214574	10.208740	-0.779742	0.000000	0.000000	3.918588	-10.412651	4.062868	24.823455	-41.730190	-28.013170	139.728499	89.411451	-22.190651	-0.556024	-7.537933	-24.525883	-54.064675	149.771911	86.193850	-22.201840	-12.123027
2.450000	3.719782	-2.118680	84.312959	0.176675	0.974388	0.441330	3.806445	5.516162	1.537082	22.512293	0.392914	35.930270	-14.014141	0.000000	5.708722	-7.127808	-6.628399	26.946045	0.470297	39.526096	-0.018053	0.000000	0.047091	0.902271	-0.072206	0.087453	1.200020	-0.076719	0.077366	2.193782	-0.076719	0.053821	2.193782	-0.063180	0.043729	1.839911	-0.058667	0.026908	1.397618	-0.054154	0.336369	10.206670	-0.401588	0.000000	0.000000	3.758627	-10.260382	3.636543	23.953689	-41.341479	-28.859535	140.107901	89.608546	-22.408640	-0.331345	-7.454570	-24.640529	-53.765528	149.744849	86.583582	-22.321185	-11.768125
2.466667	3.728488	-2.258683	84.312791	0.177208	0.974062	0.441050	4.019865	5.575044	1.665700	22.658817	0.395471	36.160846	-13.919074	0.000000	5.894099	-7.184244	-6.625349	27.019955	0.471587	39.660385	0.128329	0.000000	0.067174	0.898635	0.023054	0.124749	1.195185	0.024495	0.110360	2.184942	0.024495	0.076773	2.184942	0.020172	0.062378	1.832497	0.018732	0.038383	1.391986	0.017291	0.479817	10.165543	0.128220	0.000000	0.000000	3.618793	-9.915597	3.000560	22.932190	-41.106992	-29.921397	140.499197	89.483100	-22.604026	-0.492093	-7.189999	-24.836181	-53.155699	149.724998	86.781991	-22.403860	-11.359721
2.483333	3.722848	-2.406653	84.313282	0.177742	0.973746	0.440796	4.245140	5.629726	1.820906	22.805768	0.398036	36.393683	-13.837294	0.000000	6.084914	-7.232249	-6.648685	27.082793	0.472684	39.799626	0.301556	0.000000	0.089050	0.891725	0.140329	0.165374	1.185994	0.149100	0.146300	2.168139	0.149100	0.101775	2.168139	0.122788	0.082691	1.818405	0.114017	0.050883	1.381282	0.105247	0.636072	10.087368	0.780467	0.000000	0.000000	3.494755	-9.443277	2.179589	21.773242	-41.024743	-31.100473	140.870672	89.302666	-23.057565	-0.897281	-6.757434	-25.106446	-52.265686	149.708447	87.078926	-22.666252	-10.729407
2.500000	3.715193	-2.553149	84.332212	0.178206	0.973440	0.440577	4.465218	5.683498	1.955888	22.939668	0.400373	36.613659	-13.748864	0.000000	6.269855	-7.274311	-6.662670	27.133782	0.473574	39.903325	0.455351	0.000000	0.110870	0.884429	0.260956	0.205897	1.176291	0.277265	0.182148	2.150401	0.277265	0.126713	2.150401	0.228336	0.102954	1.803528	0.212027	0.063351	1.369981	0.195717	0.791933	10.004838	1.451357	0.000000	0.000000	3.404067	-8.886425	1.312462	20.660844	-41.045631	-32.214493	141.162370	89.199744	-23.574150	-1.493584	-6.270188	-25.397040	-51.251355	149.694240	87.143815	-22.888738	-10.153752
2.516667	3.707328	-2.686783	84.375244	0.178589	0.973135	0.440408	4.667457	5.733887	2.048761	23.057280	0.402425	36.814153	-13.655186	0.000000	6.433717	-7.314625	-6.685130	27.171456	0.474231	39.957210	0.602455	0.000000	0.130631	0.878249	0.366687	0.242595	1.168071	0.389605	0.214614	2.135374	0.389605	0.149298	2.135374	0.320851	0.121304	1.790925	0.297933	0.074643	1.360408	0.275015	0.933086	9.934927	2.039403	0.000000	0.000000	3.347520	-8.299856	0.542673	19.723203	-41.112099	-33.055030	141.339276	89.142438	-24.091951	-2.252949	-5.846120	-25.661418	-50.305069	149.683035	86.893455	-22.990604	-9.775967
2.533333	3.694085	-2.805969	84.447087	0.178897	0.972806	0.440282	4.850310	5.773018	2.083843	23.160448	0.404226	36.990324	-13.558704	0.000000	6.577759	-7.348453	-6.718431	27.202378	0.474771	39.963965	0.748568	0.000000	0.148429	0.872830	0.451577	0.275647	1.160863	0.479800	0.243854	2.122198	0.479800	0.169639	2.122198	0.395130	0.137831	1.779874	0.366906	0.084812	1.352013	0.338682	1.060213	9.873623	2.511534	0.000000	0.000000	3.334586	-7.711717	-0.080176	18.923406	-41.167116	-33.657547	141.444502	89.112094	-24.455771	-3.011157	-5.527730	-25.874511	-49.486190	149.674851	86.260077	-22.876660	-9.646841
2.550000	3.675797	-2.902494	84.556199	0.179078	0.972451	0.440166	5.005204	5.791518	2.027557	23.254112	0.405861	37.153071	-13.436231	0.000000	6.693327	-7.367414	-6.735227	27.227162	0.475204	39.934484	0.881035	0.000000	0.163662	0.867058	0.535326	0.303937	1.153187	0.568784	0.268881	2.108165	0.568784	0.187050	2.108165	0.468410	0.151977	1.768105	0.434953	0.093517	1.343073	0.401495	1.169024	9.808336	2.977324	0.000000	0.000000	3.374306	-7.097901	-0.709993	17.972037	-41.259402	-34.372043	141.608765	89.060768	-24.614929	-3.628891	-5.161691	-26.020696	-48.541655	149.666897	85.276020	-22.508973	-9.706295
2.566667	3.645042	-2.979310	84.701585	0.179181	0.972044	0.440078	5.138219	5.789512	1.912792	23.340736	0.407373	37.309102	-13.318008	0.000000	6.785245	-7.372361	-6.759513	27.247316	0.475555	39.889409	1.046404	0.000000	0.175716	0.860021	0.604292	0.326322	1.143829	0.642060	0.288684	2.091056	0.642060	0.200826	2.091056	0.528755	0.163170	1.753756	0.490987	0.100404	1.332173	0.453219	1.255121	9.728735	3.360889	0.000000	0.000000	3.468298	-6.464903	-1.265105	17.011203	-41.219217	-35.171379	141.834953	89.020168	-24.183172	-3.836075	-4.852551	-26.076865	-47.677950	149.660876	84.041131	-21.822838	-10.032126
